<?xml version="1.0" encoding="utf-8"?>
<!-- Generator: Adobe Illustrator 24.3.0, SVG Export Plug-In . SVG Version: 6.00 Build 0)  -->
<svg version="1.1" id="Livello_1" xmlns="http://www.w3.org/2000/svg" xmlns:xlink="http://www.w3.org/1999/xlink" x="0px" y="0px"
	 viewBox="0 0 188.34 32" style="enable-background:new 0 0 188.34 32;" xml:space="preserve">
<style type="text/css">
	.st0{fill:#3B709B;}
	.st1{fill:#898B8D;}
</style>
<g>
	<path class="st0" d="M9.02,25.78c1.2-0.72,2.31-1.63,3.3-2.71c1.01-1.11,1.94-2.32,2.77-3.62l1.26-2
		c-0.08-0.06-0.16-0.13-0.22-0.21c-0.24-0.28-0.35-0.66-0.29-1.03l0.07-0.47c0.1-0.62,0.63-1.09,1.27-1.09h0.87
		c0.59-0.9,1.19-1.82,1.8-2.74c0.78-1.17,1.64-2.28,2.56-3.3c0.95-1.05,2.01-1.99,3.17-2.81c0.43-0.31,0.89-0.57,1.36-0.82
		C24.09,2.16,20.17,0.4,15.83,0.4c-8.67,0-15.69,7.03-15.69,15.7c0,4.18,1.65,7.97,4.31,10.79c0.24-0.06,0.53-0.09,0.89-0.09
		C6.69,26.79,7.9,26.46,9.02,25.78"/>
	<path class="st1" d="M28.9,7.41c-0.39,0.27-0.77,0.55-1.03,0.78C27,8.96,26.23,9.8,25.6,10.7c-0.66,0.93-1.26,1.9-1.78,2.88
		c-0.14,0.26-0.28,0.52-0.43,0.78c0.32-0.04,0.62-0.09,0.89-0.14c0.08-0.02,0.21-0.03,0.3-0.03c0.68,0,1.28,0.55,1.32,1.23
		c0.07,1.34-1.89,1.91-2.16,1.94l-1.11,0.12c-0.38,0.04-0.73,0.08-1.05,0.1c-0.04,0-0.07,0-0.11,0.01
		c-0.79,1.29-1.65,2.59-2.54,3.87c-1.06,1.5-2.25,2.88-3.55,4.09c-1.33,1.24-2.84,2.26-4.49,3.03c-0.96,0.45-2,0.76-3.1,0.96
		c2.36,1.42,5.1,2.24,8.05,2.24c8.67,0,15.69-7.03,15.69-15.69C31.52,12.88,30.55,9.9,28.9,7.41"/>
	<path class="st0" d="M58.7,0.1h3.11v31.44H58.7V0.1z M40.81,31.54V6.39c0-4.15,2.38-6.25,7.08-6.25c0.68,0,6.6,0,7.42,0V2.7
		c-0.7,0-6.4,0-7.03,0c-1.08,0-4.35,0-4.35,3.97v2.46c0,0.43,0.35,0.78,0.78,0.78h4.72v2.56H44.7c-0.43,0-0.78,0.35-0.78,0.78v18.29
		H40.81z"/>
	<path class="st0" d="M75.25,31.56c-6.22,0-9-2.96-9-9.6V4.06h3.11v18.45c0,3.94,2.57,6.49,6.55,6.49c5.67,0,9.18-3.71,9.18-9.68
		V4.06h3.11v27.37h-2.84v-4.25c0-0.43-0.35-0.78-0.78-0.78h-0.11c-0.28,0-0.54,0.15-0.68,0.4C82.03,29.96,79.15,31.56,75.25,31.56"
		/>
	<path class="st0" d="M104.02,31.56c-4.63,0-12.46-1.84-12.85-14.19c0-8.09,5.29-13.97,12.57-13.97c3.34,0,6.07,1.09,8.13,3.23
		c2.53,2.63,3.99,6.88,3.97,11.47h-20.5c-0.42,0-0.76,0.33-0.78,0.75c-0.1,2.99,0.82,5.63,2.58,7.46c1.7,1.76,4.14,2.69,7.04,2.69
		c4.12,0,6.93-1.96,7.97-5.55h3.03C113.77,28.69,109.84,31.56,104.02,31.56 M103.47,5.96c-5.69,0-8.58,4.39-8.91,8.74
		c-0.02,0.22,0.06,0.43,0.21,0.59c0.15,0.16,0.35,0.25,0.57,0.25h16.32c0.21,0,0.42-0.09,0.56-0.24c0.15-0.15,0.22-0.36,0.21-0.58
		C112.18,9.73,108.33,5.96,103.47,5.96"/>
	<path class="st0" d="M137.78,31.54V13.09c0-3.94-2.57-6.49-6.55-6.49c-5.67,0-9.19,3.71-9.19,9.68v15.26h-3.11V4.7h2.84v3.73
		c0,0.43,0.35,0.78,0.78,0.78h0.11c0.28,0,0.54-0.15,0.68-0.4c1.78-3.16,4.66-4.77,8.55-4.77c6.22,0,9,2.96,9,9.6v17.9H137.78z"/>
	<path class="st0" d="M154,31.54c-4.56,0-5.98-0.75-5.98-5.43V8.04c0-0.43-0.35-0.78-0.78-0.78h-4.06V4.7h4.06
		c0.43,0,0.78-0.35,0.78-0.78V0.1h3.11v3.82c0,0.43,0.35,0.78,0.78,0.78h4.88v2.56h-4.88c-0.43,0-0.78,0.35-0.78,0.78v17.63
		c0,2.85,1.27,3.31,4.29,3.31h1.36v2.56H154z"/>
</g>
<path class="st0" d="M159.61,31.54h3.09V4.83h-3.09V31.54z M159.61,2.88h3.09V0.3h-3.09V2.88z"/>
<g>
	<path class="st0" d="M177.01,31.47c-3.89,0-10.37-1.06-11.1-7.99h3.1c0.49,3.47,3.46,5.45,8.28,5.45c4.89,0,7.58-1.76,7.58-4.97
		c0-3.87-4.31-4.8-8.49-5.7c-0.44-0.09-0.88-0.19-1.33-0.29c-5.31-1.2-8.6-2.83-8.6-7.2c0-5.71,7.57-7.24,9.74-7.24
		c6.69,0,10.12,2.32,10.71,7.28h-3.12c-0.6-2.98-3.24-4.74-7.21-4.74c-4.3,0-6.77,1.59-6.77,4.37c0,3.48,4.06,4.38,8,5.25
		c0.6,0.13,1.21,0.27,1.8,0.41c5.32,1.19,8.62,2.82,8.62,7.26C188.22,30.89,179.64,31.47,177.01,31.47"/>
</g>
</svg>
